<svg width="1600" height="900" viewBox="0 0 1600 900" fill="none" xmlns="http://www.w3.org/2000/svg">
  <rect width="1600" height="900" fill="#061319"/>
  <rect width="1600" height="900" fill="url(#bg)"/>
  <circle cx="1208" cy="174" r="248" fill="#14384A" fill-opacity="0.9"/>
  <path d="M963 172H1458" stroke="#6FE4FF" stroke-width="2" stroke-dasharray="9 10"/>
  <path d="M1208 -74V422" stroke="#6FE4FF" stroke-width="2" stroke-dasharray="9 10"/>
  <path d="M986 308C1044 234 1108 202 1182 198C1244 194 1314 226 1394 312" stroke="#6FE4FF" stroke-width="4" stroke-linecap="round"/>
  <rect x="76" y="86" width="612" height="732" rx="30" fill="#0C1C25" fill-opacity="0.84" stroke="#264757"/>
  <text x="122" y="178" fill="#EDF4F0" font-size="80" font-family="Georgia, serif" letter-spacing="2">SATELLITE</text>
  <text x="122" y="260" fill="#EDF4F0" font-size="80" font-family="Georgia, serif" letter-spacing="2">CHALLENGE</text>
  <text x="122" y="338" fill="#6FE4FF" font-size="24" font-family="'Courier New', monospace">MARITIME / AVIATION / REPLAY / REVIEW</text>
  <text x="122" y="432" fill="#C6DBD4" font-size="31" font-family="'Trebuchet MS', sans-serif">Realtime track awareness for operator review,</text>
  <text x="122" y="474" fill="#C6DBD4" font-size="31" font-family="'Trebuchet MS', sans-serif">geospatial replay, and tactical dashboarding.</text>
  <rect x="122" y="566" width="502" height="118" rx="22" fill="#102C38" stroke="#2E5B6D"/>
  <text x="156" y="624" fill="#EDF4F0" font-size="26" font-family="'Courier New', monospace">REACT / EXPRESS / MAPBOX / REPLAY BUFFER</text>
  <text x="156" y="664" fill="#9EBBB2" font-size="22" font-family="'Courier New', monospace">canonical public version of a multi-iteration build</text>
  <rect x="798" y="540" width="692" height="228" rx="28" fill="#0A1821" fill-opacity="0.9" stroke="#234757"/>
  <text x="848" y="614" fill="#6FE4FF" font-size="22" font-family="'Courier New', monospace">TRACKS</text>
  <text x="848" y="666" fill="#EDF4F0" font-size="56" font-family="Georgia, serif">Air, sea, map, replay.</text>
  <text x="848" y="722" fill="#B5CCC5" font-size="30" font-family="'Trebuchet MS', sans-serif">Built to read like an operator surface, not a challenge scrapbook.</text>
  <defs>
    <linearGradient id="bg" x1="73" y1="62" x2="1509" y2="850" gradientUnits="userSpaceOnUse">
      <stop stop-color="#0A1A22"/>
      <stop offset="0.52" stop-color="#0E2A36"/>
      <stop offset="1" stop-color="#061319"/>
    </linearGradient>
  </defs>
</svg>
